<svg width="32" height="27" viewBox="0 0 32 27" fill="none" xmlns="http://www.w3.org/2000/svg">
<path d="M28.9 22.2C30.7 21.2 32 19.2 32 17C32 13.7 29.3 11 26 11C22.7 11 20 13.7 20 17C20 19.3 21.3 21.2 23.1 22.2L21.6 23.4C20.9 23.9 20.7 24.8 21 25.6C21.3 26.4 22 26.9 22.9 26.9H29.2C30.1 26.9 30.8 26.4 31.1 25.6C31.4 24.8 31.1 23.9 30.5 23.4L28.9 22.2ZM26 15C27.1 15 28 15.9 28 17C28 18.1 27.1 19 26 19C24.9 19 24 18.1 24 17C24 15.9 24.9 15 26 15Z" fill="#F9F5F5"/>
<path d="M19.1 26.3C18.8 25.5 18.8 24.7 19 24C18.8 23.8 18.7 23.5 18.6 23.2C18.6 23.1 18.6 23 18.5 23H9.5C9.5 23.1 9.5 23.2 9.4 23.2C9.1 24.3 8.1 25 7 25C6.4 25 6 25.4 6 26C6 26.6 6.4 27 7 27H19.4C19.3 26.8 19.2 26.6 19.1 26.3Z" fill="#F9F5F5"/>
<path d="M18 17C18 12.6 21.6 9 26 9C26.7 9 27.4 9.1 28 9.3V3C28 1.3 26.7 0 25 0H3C1.3 0 0 1.3 0 3V18C0 19.7 1.3 21 3 21H9.9H18H19C18.4 19.8 18 18.4 18 17Z" fill="#F9F5F5"/>
</svg>
