<svg width="85" height="24" viewBox="0 0 85 24" fill="none" xmlns="http://www.w3.org/2000/svg">
<path d="M3.42857 24V20.5714H0V0H6.85714V13.7143H10.2857V0H13.7143V13.7143H17.1429V0H24V20.5714H20.5714V24H17.1429V20.5714H13.7143V17.1429H10.2857V20.5714H6.85714V24H3.42857Z" fill="#65A765"/>
<path d="M33.6 24V20.5714H30.1714V3.42857H33.6V0H50.7429V3.42857H54.1714V20.5714H50.7429V24H33.6ZM37.0286 20.5714H47.3143V3.42857H37.0286V20.5714Z" fill="#65A765"/>
<path d="M63.7714 24V20.5714H60.3429V0H67.2V13.7143H70.6286V0H74.0571V13.7143H77.4857V0H84.3429V20.5714H80.9143V24H77.4857V20.5714H74.0571V17.1429H70.6286V20.5714H67.2V24H63.7714Z" fill="#65A765"/>
</svg>
