<svg width="24" height="27" viewBox="0 0 24 27" fill="none" xmlns="http://www.w3.org/2000/svg">
<path d="M15.9954 21.875H7.85787C7.76146 21.5173 7.61737 21.1743 7.42947 20.855L17.9754 10.3093C18.697 10.7352 19.5344 10.9233 20.3688 10.847C21.2033 10.7708 21.9927 10.434 22.6252 9.8844C23.2577 9.33479 23.7014 8.60018 23.8934 7.78452C24.0854 6.96887 24.016 6.11348 23.695 5.33943C23.3741 4.56538 22.8178 3.91187 22.105 3.47139C21.3922 3.03091 20.5589 2.82576 19.723 2.88499C18.8872 2.94422 18.0911 3.26482 17.4475 3.80142C16.8039 4.33802 16.3454 5.06344 16.1368 5.87501H9.99537V7.87501H16.1368C16.2299 8.23317 16.3727 8.57651 16.5611 8.89501L6.01537 19.4406C5.2937 19.0148 4.45638 18.8267 3.62191 18.903C2.78745 18.9792 1.99811 19.316 1.3656 19.8656C0.73309 20.4153 0.28945 21.1499 0.0974641 21.9655C-0.0945215 22.7812 -0.0251282 23.6366 0.295823 24.4106C0.616774 25.1846 1.17303 25.8381 1.88586 26.2786C2.59869 26.7191 3.432 26.9242 4.26784 26.865C5.10369 26.8058 5.89974 26.4852 6.54334 25.9486C7.18693 25.412 7.64548 24.6866 7.85407 23.875H15.9954V26.875H23.9954V18.875H15.9954V21.875ZM19.9954 4.87501C20.3909 4.87501 20.7776 4.99231 21.1065 5.21207C21.4354 5.43184 21.6918 5.74419 21.8431 6.10965C21.9945 6.4751 22.0341 6.87723 21.9569 7.26519C21.8798 7.65315 21.6893 8.00952 21.4096 8.28923C21.1299 8.56893 20.7735 8.75941 20.3856 8.83658C19.9976 8.91375 19.5955 8.87415 19.23 8.72277C18.8646 8.5714 18.5522 8.31505 18.3324 7.98615C18.1127 7.65725 17.9954 7.27057 17.9954 6.87501C17.996 6.34477 18.2069 5.83641 18.5818 5.46147C18.9568 5.08653 19.4651 4.87562 19.9954 4.87501ZM3.99537 24.875C3.59981 24.875 3.21313 24.7577 2.88423 24.538C2.55533 24.3182 2.29899 24.0058 2.14761 23.6404C1.99624 23.2749 1.95663 22.8728 2.0338 22.4848C2.11097 22.0969 2.30145 21.7405 2.58116 21.4608C2.86086 21.1811 3.21723 20.9906 3.60519 20.9134C3.99315 20.8363 4.39529 20.8759 4.76074 21.0273C5.12619 21.1786 5.43855 21.435 5.65831 21.7639C5.87807 22.0928 5.99537 22.4794 5.99537 22.875C5.99476 23.4053 5.78385 23.9136 5.40891 24.2886C5.03397 24.6635 4.52562 24.8744 3.99537 24.875ZM17.9954 20.875H21.9954V24.875H17.9954V20.875Z" fill="#FAFAFA"/>
<path d="M5.68915 10.6255C5.15709 10.1563 4.73095 9.57929 4.43904 8.93276C4.14713 8.28623 3.99614 7.58498 3.99609 6.8756C3.99605 6.16622 4.14695 5.46496 4.43877 4.81838C4.73059 4.17181 5.15665 3.59473 5.68865 3.12549L7.01285 4.62499C6.69344 4.90648 6.43759 5.25274 6.26233 5.64075C6.08707 6.02875 5.9964 6.44962 5.99635 6.87538C5.9963 7.30113 6.08688 7.72202 6.26206 8.11006C6.43723 8.49811 6.693 8.84442 7.01235 9.12599L5.68915 10.6255Z" fill="#FAFAFA"/>
<path d="M3.04372 13.626C2.08589 12.7814 1.31877 11.7427 0.793309 10.5788C0.267851 9.41489 -0.00390625 8.15251 -0.00390625 6.8755C-0.00390625 5.59849 0.267851 4.33611 0.793309 3.17221C1.31877 2.00832 2.08589 0.96958 3.04372 0.125L4.36692 1.625C3.62191 2.2819 3.02522 3.08982 2.61651 3.99509C2.2078 4.90036 1.99642 5.88224 1.99642 6.8755C1.99642 7.86876 2.2078 8.85064 2.61651 9.75591C3.02522 10.6612 3.62191 11.4691 4.36692 12.126L3.04372 13.626Z" fill="#FAFAFA"/>
</svg>
