<svg width="30" height="30" viewBox="0 0 30 30" fill="none" xmlns="http://www.w3.org/2000/svg">
<path d="M24 13.55V9.99999C22.3375 9.99999 21.0688 9.55624 20.25 8.69374C19.4097 7.70939 18.9389 6.46283 18.9188 5.16874V4.91249L15.5625 4.83124V19.25C15.4474 19.8791 15.142 20.4577 14.6876 20.9078C14.2332 21.3578 13.6516 21.6576 13.0215 21.7667C12.3913 21.8757 11.7428 21.7888 11.1636 21.5176C10.5844 21.2465 10.1023 20.8041 9.78245 20.2503C9.4626 19.6965 9.32037 19.0579 9.37496 18.4207C9.42956 17.7834 9.67835 17.1783 10.0878 16.687C10.4972 16.1957 11.0474 15.8418 11.6644 15.6731C12.2813 15.5044 12.9351 15.5291 13.5375 15.7437V12.3062C13.1862 12.2487 12.8309 12.2194 12.475 12.2187C11.1944 12.2187 9.94249 12.5985 8.87769 13.31C7.81288 14.0215 6.98296 15.0327 6.49288 16.2159C6.00281 17.399 5.87458 18.7009 6.12442 19.9569C6.37426 21.213 6.99094 22.3667 7.89649 23.2723C8.80203 24.1778 9.95577 24.7945 11.2118 25.0443C12.4678 25.2942 13.7697 25.1659 14.9529 24.6759C16.136 24.1858 17.1473 23.3559 17.8588 22.2911C18.5703 21.2262 18.95 19.9744 18.95 18.6937C18.9493 18.4284 18.9326 18.1633 18.9 17.9V12.1812C20.4261 13.1343 22.2017 13.6109 24 13.55Z" fill="#FAFAFA" fill-opacity="0.5"/>
</svg>
